<svg version="1.1" id="Layer_1" xmlns="http://www.w3.org/2000/svg" x="0" y="0" viewBox="0 0 51 51" xml:space="preserve"><style>.st1{opacity:.5;fill:#b9994d;enable-background:new}</style><g id="fast-delivery_1_" transform="translate(0 -105)" opacity=".9"><path id="Path_2425" class="st1" d="M38 115.4h-5.6l-.9 8.2h5.6l.9-8.2z"/><path id="Path_2426" d="M47.3 115.3H41l-1 10c-.1.8-.7 1.3-1.5 1.3h-8.6c-.8 0-1.5-.7-1.5-1.5v-.2l1-9.7h-6.8c-1.9 0-3.5 1.4-3.7 3.3l-2.6 22.6c-.2 2 1.2 3.9 3.3 4.1h25c1.9 0 3.5-1.4 3.7-3.3l2.6-22.6c.2-2-1.2-3.9-3.3-4.1-.1.1-.2.1-.3.1z" fill="#b9994d"/><path id="Path_2427" class="st1" d="M12 135.2H1.6c-.8 0-1.5.7-1.5 1.5s.7 1.5 1.5 1.5H12c.8 0 1.5-.7 1.5-1.5 0-.9-.6-1.5-1.5-1.5z"/><path id="Path_2428" class="st1" d="M12 128.8H3.3c-.8 0-1.5.7-1.5 1.5s.7 1.5 1.5 1.5H12c.8 0 1.5-.7 1.5-1.5s-.6-1.5-1.5-1.5z"/><path id="Path_2429" class="st1" d="M12 122.4H4.9c-.8 0-1.5.7-1.5 1.5s.7 1.5 1.5 1.5H12c.8 0 1.5-.7 1.5-1.5s-.6-1.5-1.5-1.5z"/></g></svg>