<svg xmlns="http://www.w3.org/2000/svg" viewBox="0 0 59 59"><g opacity=".9" fill="#b9994d"><path d="M3 39.9h53c1.7 0 3 1.3 3 3s-1.3 3-3 3H3c-1.7 0-3-1.3-3-3 0-1.6 1.4-3 3-3z" opacity=".5"/><path d="M44.7 20.4H39v-7.5H12.8c-2.1 0-3.7 1.7-3.8 3.7v20.6h3.8c0 3.1 2.5 5.6 5.6 5.6s5.6-2.5 5.6-5.6h11.3c0 3.1 2.5 5.6 5.6 5.6s5.6-2.5 5.6-5.6h3.8v-9.4l-5.6-7.4zM18.4 40.1c-1.6 0-2.8-1.3-2.8-2.8 0-1.6 1.3-2.8 2.8-2.8s2.8 1.3 2.8 2.8c0 1.6-1.2 2.8-2.8 2.8zm22.5 0c-1.6 0-2.8-1.3-2.8-2.8 0-1.6 1.3-2.8 2.8-2.8s2.8 1.3 2.8 2.8c0 1.6-1.2 2.8-2.8 2.8zM39 27.9v-4.7h4.7l3.7 4.7H39z"/></g></svg>