<svg version="1.1" id="Layer_1" xmlns="http://www.w3.org/2000/svg" x="0" y="0" viewBox="0 0 38 38" xml:space="preserve"><style>.st1{fill:#b9994d}</style><g id="Group_1171" transform="translate(-792.512 -9432.988)" opacity=".9"><g id="Group_1170" transform="rotate(30 816.099 9547.335)"><path id="Path_2432" class="st1" d="M774.5 9452.3c.4 0 .7-.3.7-.7 0-.2-.1-.3-.2-.4l-1.6-2 .8-2.5c.1-.4-.1-.8-.5-.9h-.5l-2.4.9-2.1-1.5c-.3-.2-.8-.2-1 .2-.1.1-.1.3-.1.4l.1 2.6-2.1 1.6c-.3.2-.4.7-.1 1 .1.1.2.2.4.3l2.5.7.8 2.5c.1.4.5.6.9.4.2-.1.3-.2.4-.3l1.4-2.2 2.6-.1z"/></g><g id="Group_1169" transform="translate(22 -12.255)"><path id="Path_2433" d="M801.9 9465.7c1 .3 2-.3 2.3-1.4s-.3-2-1.4-2.3c-.3-.1-.6-.1-.9 0H793v-5.6c0-1.5 0-4.5-4-4.9-.4 0-.8.3-.9.7v5.6c0 .2 0 .3-.1.4l-2.3 3.8h.1l-3.3 2.2v15.6c.5.3 1.1.4 1.6.4h16.2c1 .3 2-.3 2.3-1.4s-.3-2-1.4-2.3c-.3-.1-.6-.1-.9 0h-2.4v-1.2h3.2c1 .3 2-.3 2.3-1.4s-.3-2-1.4-2.3c-.3-.1-.6-.1-.9 0h-3.2v-1.2h4.1c1 .3 2-.3 2.3-1.4s-.3-2-1.4-2.3c-.3-.1-.6-.1-.9 0h-4.1v-1.2l4 .2z" opacity=".5" fill="#b9994d"/><path id="Path_2434" class="st1" d="M780 9462.1h-8.1c-.7 0-1.2.5-1.2 1.2v17c0 .7.5 1.2 1.2 1.2h8.1c.7 0 1.2-.5 1.2-1.2v-17c0-.7-.5-1.2-1.2-1.2zm-4 17.5c-.7 0-1.2-.5-1.2-1.2s.5-1.2 1.2-1.2 1.2.5 1.2 1.2-.6 1.2-1.2 1.2z"/></g></g></svg>