<svg version="1.1" id="Layer_1" xmlns="http://www.w3.org/2000/svg" x="0" y="0" viewBox="0 0 51 51" xml:space="preserve"><style>.st2{fill:#b9994d}</style><g id="pay" opacity=".9"><path id="Path_2444" d="M45.5 28.6v10.9c0 .5-.4.9-.9.9h-7.1c-.5 0-.9-.4-.9-.9v-4.9c0-.5-.4-1-1-1h-3c-.5 0-1 .4-1 1v4.9c0 .5-.4.9-.9.9h-1.3c-.5 0-.9-.4-.9-.9V28.6c-1.1.9-2.2 1.7-3.2 2.5-.2.2-.5.3-.8.4-.6.1-1.1-.1-1.4-.7-.3-.5-.1-1.2.3-1.6.9-.8 1.9-1.5 2.9-2.3l9.6-7.5c1-.8 1.2-.8 2.2 0L50.2 29c.3.2.5.5.7.9.2.7-.2 1.4-.9 1.5-.4.1-.8 0-1.1-.2-.9-.7-1.9-1.5-2.8-2.2-.2-.1-.3-.2-.6-.4z" opacity=".5" fill="#b9994d"/><g id="Group_1184" transform="translate(0 11.439)"><path id="Path_2445" class="st2" d="M26.1 20.7c-.1.1-.3.2-.5.3-.4.4-.9.6-1.5.7-1.4.3-2.9-.3-3.5-1.6-.7-1.3-.3-3 .8-3.9.8-.6 1.5-1.2 2.3-1.8l4.9-3.8c-9.5-.1-19.1-.1-28.7-.2.1.3.1.6.1.9 0 2.8-.1 5.7-.1 8.5-.1 3.2 2.3 5.8 5.5 6h.4c1.7 0 3.5 0 5.3.1 5 .1 10 .1 15 .1v-5.3z"/></g><path id="Path_2447" class="st2" d="M34.7 17.4c1.7-1.3 2.9-1.3 4.5 0l1.1.9h1.6c.9-5.1-2.5-7.7-6.2-7.7-9.8 0-19.7-.1-29.5-.2-.7 0-1.3.1-1.9.2-3 .8-4.6 3.6-4.1 7.3l33.5.3 1-.8z"/></g></svg>